<svg width="94" height="103" viewBox="0 0 94 103" fill="none" xmlns="http://www.w3.org/2000/svg">
<path d="M42.5119 0H67.3124C75.7785 0 81.9537 1.95305 85.8381 5.85916C89.7226 9.66761 91.6648 15.5756 91.6648 23.5831V27.6845C91.6648 32.9577 90.7684 37.2545 88.9756 40.5746C87.2824 43.8948 84.6429 46.2873 81.0573 47.7521V48.0451C89.2246 50.7793 93.3082 57.908 93.3082 69.431V78.2197C93.3082 86.1296 91.1668 92.184 86.8839 96.3831C82.7007 100.485 76.5255 102.535 68.3582 102.535H42.5119V0ZM65.3702 41.7465C68.657 41.7465 71.0973 40.9164 72.6909 39.2563C74.3841 37.5962 75.2307 34.8131 75.2307 30.907V25.1944C75.2307 21.4836 74.5335 18.7981 73.1391 17.138C71.8443 15.4779 69.7527 14.6479 66.8642 14.6479H58.946V41.7465H65.3702ZM68.3582 87.8873C71.2467 87.8873 73.3881 87.1549 74.7825 85.6901C76.1769 84.1277 76.8741 81.4911 76.8741 77.7803V68.8451C76.8741 64.1578 76.0275 60.9352 74.3343 59.1775C72.7407 57.3221 70.0515 56.3944 66.2666 56.3944H58.946V87.8873H68.3582Z" fill="#E1E1E1"/>
<path d="M44.8202 102.645H0V87.9975H28.3862V60.8989H5.82663V46.251H28.3862V14.758H0V0.110141H44.8202V102.645Z" fill="url(#paint0_linear_74_21)"/>
<defs>
<linearGradient id="paint0_linear_74_21" x1="23.8084" y1="132.271" x2="23.8084" y2="-43.9437" gradientUnits="userSpaceOnUse">
<stop stop-color="#2DFFE6"/>
<stop offset="0.546875" stop-color="#FF2DF7"/>
<stop offset="1" stop-color="#0B8AFF"/>
</linearGradient>
</defs>
</svg>
