<svg width="519" height="562" viewBox="0 0 519 562" fill="none" xmlns="http://www.w3.org/2000/svg">
<g opacity="0.09">
<g opacity="0.72">
<path opacity="0.72" d="M580.679 46.7038L470.872 144.623L469.335 142.898L579.142 44.9787L580.679 46.7038ZM583.067 49.3788L473.261 147.298L474.797 149.023L584.604 51.1039L583.067 49.3788ZM586.999 53.7858L477.193 151.705L478.729 153.43L588.536 55.511L586.999 53.7858ZM590.924 58.1859L481.118 156.105L482.654 157.83L592.461 59.911L590.924 58.1859ZM594.85 62.593L485.043 160.512L486.58 162.237L596.386 64.3181L594.85 62.593ZM598.775 66.9931L488.968 164.912L490.505 166.638L600.311 68.7182L598.775 66.9931ZM602.707 71.4002L492.9 169.319L494.437 171.045L604.243 73.1253L602.707 71.4002ZM606.632 75.8002L496.825 173.72L498.362 175.445L608.169 77.5253L606.632 75.8002ZM610.557 80.2073L500.751 178.127L502.287 179.852L612.094 81.9324L610.557 80.2073ZM614.482 84.6074L504.676 182.527L506.212 184.252L616.019 86.3325L614.482 84.6074ZM618.415 89.0145L508.608 186.934L510.144 188.659L619.951 90.7396L618.415 89.0145ZM622.34 93.4145L512.533 191.334L514.07 193.059L623.876 95.1397L622.34 93.4145ZM626.265 97.8216L516.458 195.741L517.995 197.466L627.801 99.5467L626.265 97.8216ZM630.19 102.222L520.383 200.141L521.92 201.866L631.727 103.947L630.19 102.222ZM634.115 106.629L524.309 204.548L525.845 206.273L635.652 108.354L634.115 106.629ZM638.047 111.036L528.241 208.955L529.777 210.68L639.584 112.761L638.047 111.036ZM641.972 115.436L532.166 213.355L533.702 215.08L643.509 117.161L641.972 115.436ZM645.898 119.843L536.091 217.762L537.628 219.487L647.434 121.568L645.898 119.843ZM649.823 124.243L540.016 222.162L541.553 223.888L651.359 125.968L649.823 124.243ZM653.755 128.65L543.948 226.569L545.485 228.295L655.291 130.375L653.755 128.65ZM657.68 133.05L547.873 230.97L549.41 232.695L659.217 134.775L657.68 133.05ZM661.605 137.457L551.799 235.377L553.335 237.102L663.142 139.182L661.605 137.457ZM665.53 141.857L555.724 239.777L557.26 241.502L667.067 143.582L665.53 141.857Z" fill="white"/>
</g>
<g opacity="0.72">
<path opacity="0.72" d="M447.167 248.325L270.13 406.198L267.651 403.418L444.695 245.546L447.167 248.325ZM451.023 252.642L273.979 410.521L276.458 413.301L453.502 255.428L451.023 252.642ZM457.35 259.745L280.313 417.617L282.793 420.397L459.837 262.524L457.35 259.745ZM463.685 266.841L286.641 424.72L289.12 427.5L466.165 269.627L463.685 266.841ZM470.013 273.944L292.976 431.816L295.455 434.596L472.499 276.723L470.013 273.944ZM476.348 281.04L299.304 438.919L301.783 441.699L478.827 283.826L476.348 281.04ZM482.675 288.143L305.638 446.015L308.118 448.795L485.155 290.922L482.675 288.143ZM489.01 295.246L311.966 453.118L314.445 455.898L491.489 298.025L489.01 295.246ZM495.338 302.342L318.301 460.221L320.78 463.001L497.824 305.128L495.338 302.342ZM501.673 309.445L324.629 467.317L327.108 470.097L504.152 312.224L501.673 309.445ZM508 316.541L330.963 474.42L333.443 477.2L510.487 319.327L508 316.541ZM514.335 323.644L337.291 481.516L339.77 484.296L516.814 326.423L514.335 323.644ZM520.663 330.74L343.626 488.619L346.105 491.399L523.149 333.526L520.663 330.74ZM526.998 337.843L349.953 495.715L352.433 498.495L529.477 340.622L526.998 337.843ZM533.332 344.946L356.288 502.818L358.768 505.598L535.812 347.725L533.332 344.946ZM539.66 352.042L362.616 509.921L365.095 512.701L542.139 354.828L539.66 352.042ZM545.995 359.145L368.951 517.017L371.43 519.797L548.474 361.924L545.995 359.145ZM552.322 366.241L375.278 524.12L377.758 526.9L554.802 369.027L552.322 366.241ZM558.657 373.344L381.613 531.216L384.093 533.996L561.137 376.123L558.657 373.344ZM564.985 380.44L387.941 538.319L390.42 541.099L567.464 383.226L564.985 380.44ZM571.32 387.543L394.276 545.415L396.755 548.195L573.799 390.322L571.32 387.543ZM577.647 394.646L400.603 552.518L403.083 555.298L580.127 397.425L577.647 394.646ZM583.982 401.742L406.938 559.621L409.417 562.401L586.462 404.528L583.982 401.742Z" fill="white"/>
</g>
<g opacity="0.72">
<path opacity="0.72" d="M296.217 1.57146L196.279 90.6837L194.882 89.1122L294.813 0L296.217 1.57146ZM298.389 4.00897L198.458 93.1212L199.855 94.6926L299.786 5.58043L298.389 4.00897ZM301.965 8.01793L202.027 97.1301L203.424 98.7016L303.362 9.58241L301.965 8.01793ZM305.534 12.0269L205.603 101.139L207 102.711L306.93 13.5984L305.534 12.0269ZM309.11 16.0289L209.179 105.141L210.576 106.713L310.506 17.6003L309.11 16.0289ZM312.686 20.0379L212.748 109.15L214.145 110.722L314.075 21.6093L312.686 20.0379ZM316.255 24.0468L216.324 113.159L217.721 114.73L317.651 25.6183L316.255 24.0468ZM319.83 28.0558L219.9 117.168L221.296 118.739L321.227 29.6272L319.83 28.0558ZM323.406 32.0648L223.476 121.177L224.872 122.748L324.803 33.6362L323.406 32.0648ZM326.975 36.0667L227.045 125.179L228.441 126.75L328.372 37.6382L326.975 36.0667ZM330.551 40.0757L230.62 129.188L232.017 130.759L331.948 41.6472L330.551 40.0757ZM334.127 44.0847L234.196 133.197L235.593 134.768L335.524 45.6561L334.127 44.0847ZM337.696 48.0936L237.765 137.206L239.162 138.777L339.093 49.6651L337.696 48.0936ZM341.272 52.1026L241.341 141.215L242.738 142.786L342.669 53.6741L341.272 52.1026ZM344.848 56.1046L244.917 145.217L246.314 146.788L346.245 57.676L344.848 56.1046ZM348.417 60.1136L248.486 149.226L249.883 150.797L349.821 61.685L348.417 60.1136ZM351.993 64.1225L252.062 153.235L253.459 154.806L353.39 65.694L351.993 64.1225ZM355.569 68.1315L255.638 157.244L257.035 158.815L356.966 69.7029L355.569 68.1315ZM359.145 72.1405L259.207 161.253L260.604 162.824L360.535 73.7119L359.145 72.1405ZM362.714 76.1424L262.783 165.262L264.18 166.833L364.118 77.7139L362.714 76.1424ZM366.29 80.1514L266.359 169.264L267.756 170.835L367.687 81.7229L366.29 80.1514ZM369.866 84.1604L269.928 173.273L271.325 174.844L371.256 85.7318L369.866 84.1604ZM373.435 88.1693L273.504 177.282L274.901 178.853L374.832 89.7408L373.435 88.1693Z" fill="white"/>
</g>
<g opacity="0.72">
<path opacity="0.72" d="M126.373 221.352L52.9547 286.823L51.928 285.67L125.347 220.2L126.373 221.352ZM127.973 223.147L54.5541 288.618L55.5807 289.77L128.999 224.3L127.973 223.147ZM130.599 226.088L57.1801 291.558L58.2068 292.71L131.625 227.24L130.599 226.088ZM133.225 229.035L59.8062 294.505L60.8329 295.658L134.251 230.187L133.225 229.035ZM135.851 231.982L62.4323 297.453L63.459 298.605L136.878 233.135L135.851 231.982ZM138.477 234.923L65.0514 300.393L66.0781 301.546L139.497 236.075L138.477 234.923ZM141.103 237.87L67.6775 303.34L68.7042 304.493L142.123 239.022L141.103 237.87ZM143.722 240.81L70.3036 306.281L71.3303 307.433L144.749 241.963L143.722 240.81ZM146.348 243.758L72.9297 309.228L73.9563 310.381L147.375 244.91L146.348 243.758ZM148.974 246.698L75.5557 312.169L76.5824 313.321L150.001 247.851L148.974 246.698ZM151.6 249.645L78.1818 315.116L79.2085 316.268L152.634 250.798L151.6 249.645ZM154.226 252.593L80.8079 318.063L81.8346 319.216L155.253 253.745L154.226 252.593ZM156.853 255.533L83.434 321.004L84.4607 322.156L157.879 256.686L156.853 255.533ZM159.479 258.481L86.0601 323.951L87.0868 325.103L160.505 259.633L159.479 258.481ZM162.105 261.421L88.6862 326.891L89.7128 328.044L163.131 262.573L162.105 261.421ZM164.731 264.368L91.3122 329.839L92.3389 330.991L165.757 265.521L164.731 264.368ZM167.357 267.316L93.9383 332.786L94.965 333.939L168.384 268.468L167.357 267.316ZM169.983 270.256L96.5644 335.726L97.5911 336.879L171.01 271.408L169.983 270.256ZM172.609 273.203L99.1905 338.674L100.217 339.826L173.636 274.356L172.609 273.203ZM175.235 276.144L101.817 341.614L102.843 342.767L176.262 277.296L175.235 276.144ZM177.861 279.091L104.443 344.562L105.469 345.714L178.888 280.244L177.861 279.091ZM180.487 282.032L107.069 347.502L108.095 348.654L181.514 283.184L180.487 282.032ZM183.113 284.979L109.695 350.449L110.721 351.602L184.14 286.131L183.113 284.979Z" fill="white"/>
</g>
<g opacity="0.72">
<path opacity="0.72" d="M68.8159 58.1579L0.94986 118.677L0 117.608L67.8661 57.0893L68.8159 58.1579ZM70.2966 59.8132L2.43053 120.332L3.38039 121.4L71.2465 60.8818L70.2966 59.8132ZM72.7201 62.5371L4.85407 123.056L5.80392 124.124L73.67 63.6057L72.7201 62.5371ZM75.1507 65.2539L7.28459 125.773L8.23445 126.841L76.1005 66.3225L75.1507 65.2539ZM77.5742 67.9778L9.70813 128.496L10.658 129.565L78.5241 69.0464L77.5742 67.9778ZM80.0047 70.7017L12.1386 131.22L13.0885 132.289L80.9546 71.7703L80.0047 70.7017ZM82.4283 73.4255L14.5622 133.944L15.512 135.013L83.3781 74.4941L82.4283 73.4255ZM84.8588 76.1424L16.9927 136.661L17.9426 137.73L85.8087 77.211L84.8588 76.1424ZM87.2823 78.8663L19.4163 139.385L20.3661 140.454L88.2322 79.9349L87.2823 78.8663ZM89.7129 81.5901L21.8468 142.109L22.7966 143.177L90.6627 82.6587L89.7129 81.5901ZM92.1364 84.307L24.2703 144.826L25.2202 145.894L93.0862 85.3756L92.1364 84.307ZM94.5669 87.0309L26.7008 147.55L27.6507 148.618L95.5168 88.0995L94.5669 87.0309ZM96.9904 89.7547L29.1244 150.273L30.0742 151.342L97.9403 90.8233L96.9904 89.7547ZM99.421 92.4716L31.5549 152.99L32.5048 154.059L100.371 93.5402L99.421 92.4716ZM101.845 95.1955L33.9784 155.714L34.9283 156.783L102.794 96.2641L101.845 95.1955ZM104.275 97.9194L36.409 158.438L37.3588 159.507L105.225 98.981L104.275 97.9194ZM106.706 100.636L38.8395 161.155L39.7893 162.223L107.655 101.705L106.706 100.636ZM109.129 103.36L41.263 163.879L42.2129 164.947L110.079 104.429L109.129 103.36ZM111.56 106.084L43.6935 166.603L44.6434 167.671L112.509 107.153L111.56 106.084ZM113.983 108.808L46.1171 169.326L47.0669 170.395L114.933 109.876L113.983 108.808ZM116.414 111.525L48.5476 172.043L49.4975 173.112L117.364 112.593L116.414 111.525ZM118.837 114.249L50.9711 174.767L51.921 175.836L119.787 115.317L118.837 114.249ZM121.268 116.972L53.4017 177.491L54.3515 178.56L122.218 118.041L121.268 116.972Z" fill="white"/>
</g>
<g opacity="0.72">
<path opacity="0.72" d="M262.189 235.488L217.183 275.627L216.554 274.922L261.561 234.783L262.189 235.488ZM263.167 236.585L218.16 276.724L218.789 277.429L263.796 237.29L263.167 236.585ZM264.773 238.387L219.767 278.525L220.395 279.231L265.402 239.092L264.773 238.387ZM266.387 240.196L221.38 280.334L222.009 281.04L267.015 240.901L266.387 240.196ZM267.993 241.998L222.987 282.136L223.615 282.842L268.622 242.703L267.993 241.998ZM269.607 243.807L224.6 283.945L225.229 284.651L270.235 244.512L269.607 243.807ZM271.213 245.609L226.206 285.747L226.835 286.453L271.842 246.314L271.213 245.609ZM272.826 247.418L227.82 287.556L228.448 288.262L273.455 248.123L272.826 247.418ZM274.433 249.219L229.426 289.358L230.055 290.063L275.061 249.925L274.433 249.219ZM276.046 251.028L231.039 291.167L231.668 291.872L276.675 251.734L276.046 251.028ZM277.652 252.83L232.646 292.969L233.274 293.674L278.281 253.536L277.652 252.83ZM279.266 254.632L234.259 294.771L234.888 295.476L279.894 255.338L279.266 254.632ZM280.872 256.441L235.866 296.58L236.494 297.285L281.501 257.147L280.872 256.441ZM282.486 258.243L237.479 298.382L238.108 299.087L283.114 258.949L282.486 258.243ZM284.092 260.052L239.085 300.191L239.714 300.896L284.72 260.757L284.092 260.052ZM285.698 261.854L240.692 301.993L241.32 302.698L286.327 262.559L285.698 261.854ZM287.312 263.663L242.305 303.802L242.934 304.507L287.94 264.368L287.312 263.663ZM288.918 265.465L243.911 305.603L244.54 306.309L289.547 266.17L288.918 265.465ZM290.531 267.274L245.525 307.412L246.153 308.118L291.16 267.979L290.531 267.274ZM292.138 269.076L247.131 309.214L247.76 309.92L292.766 269.781L292.138 269.076ZM293.751 270.878L248.745 311.016L249.373 311.722L294.38 271.583L293.751 270.878ZM295.358 272.687L250.351 312.825L250.98 313.531L295.986 273.392L295.358 272.687ZM296.971 274.489L251.964 314.627L252.593 315.333L297.599 275.194L296.971 274.489Z" fill="white"/>
</g>
<g opacity="0.72">
<path opacity="0.72" d="M176.883 371.814L131.877 411.953L131.248 411.247L176.255 371.109L176.883 371.814ZM177.868 372.911L132.862 413.049L133.49 413.755L178.497 373.616L177.868 372.911ZM179.475 374.713L134.468 414.851L135.097 415.557L180.103 375.418L179.475 374.713ZM181.088 376.522L136.081 416.66L136.71 417.366L181.717 377.227L181.088 376.522ZM182.694 378.324L137.688 418.462L138.316 419.167L183.323 379.029L182.694 378.324ZM184.308 380.132L139.301 420.271L139.93 420.976L184.936 380.838L184.308 380.132ZM185.914 381.934L140.908 422.073L141.536 422.778L186.543 382.64L185.914 381.934ZM187.52 383.743L142.514 423.882L143.142 424.587L188.149 384.449L187.52 383.743ZM189.134 385.545L144.127 425.684L144.756 426.389L189.762 386.251L189.134 385.545ZM190.74 387.347L145.734 427.486L146.362 428.191L191.369 388.053L190.74 387.347ZM192.354 389.156L147.347 429.295L147.976 430L192.982 389.862L192.354 389.156ZM193.96 390.958L148.953 431.097L149.582 431.802L194.589 391.663L193.96 390.958ZM195.573 392.767L150.567 432.906L151.195 433.611L196.202 393.472L195.573 392.767ZM197.18 394.569L152.173 434.707L152.802 435.413L197.808 395.274L197.18 394.569ZM198.793 396.378L153.786 436.516L154.415 437.222L199.422 397.083L198.793 396.378ZM200.399 398.18L155.393 438.318L156.021 439.024L201.028 398.885L200.399 398.18ZM202.013 399.989L157.006 440.127L157.635 440.833L202.641 400.694L202.013 399.989ZM203.619 401.791L158.613 441.929L159.241 442.635L204.248 402.496L203.619 401.791ZM205.233 403.593L160.226 443.731L160.855 444.437L205.861 404.298L205.233 403.593ZM206.839 405.402L161.832 445.54L162.461 446.245L207.468 406.107L206.839 405.402ZM208.445 407.203L163.439 447.342L164.067 448.047L209.074 407.909L208.445 407.203ZM210.059 409.012L165.052 449.151L165.681 449.856L210.687 409.718L210.059 409.012ZM211.665 410.814L166.658 450.953L167.287 451.658L212.294 411.52L211.665 410.814Z" fill="white"/>
</g>
<g opacity="0.72">
<path opacity="0.72" d="M569.406 226.095L501.54 286.613L500.59 285.545L568.456 225.026L569.406 226.095ZM570.88 227.75L503.014 288.268L503.963 289.337L571.83 228.818L570.88 227.75ZM573.31 230.474L505.444 290.992L506.394 292.061L574.26 231.542L573.31 230.474ZM575.734 233.197L507.868 293.716L508.818 294.785L576.684 234.266L575.734 233.197ZM578.164 235.914L510.298 296.433L511.248 297.502L579.114 236.983L578.164 235.914ZM580.588 238.638L512.722 299.157L513.672 300.225L581.538 239.707L580.588 238.638ZM583.018 241.362L515.152 301.881L516.102 302.949L583.968 242.431L583.018 241.362ZM585.442 244.086L517.576 304.605L518.526 305.673L586.392 245.155L585.442 244.086ZM587.872 246.803L520.006 307.321L520.956 308.39L588.822 247.871L587.872 246.803ZM590.296 249.527L522.43 310.045L523.38 311.114L591.246 250.595L590.296 249.527ZM592.726 252.251L524.86 312.769L525.81 313.838L593.676 253.319L592.726 252.251ZM595.15 254.967L527.284 315.493L528.234 316.562L596.1 256.043L595.15 254.967ZM597.581 257.691L529.714 318.21L530.664 319.279L598.53 258.76L597.581 257.691ZM600.004 260.415L532.138 320.934L533.088 322.002L600.954 261.484L600.004 260.415ZM602.435 263.132L534.568 323.651L535.518 324.719L603.384 264.201L602.435 263.132ZM604.858 265.856L536.992 326.375L537.942 327.443L605.808 266.925L604.858 265.856ZM607.289 268.58L539.423 329.098L540.372 330.167L608.239 269.648L607.289 268.58ZM609.712 271.304L541.846 331.822L542.796 332.891L610.662 272.372L609.712 271.304ZM612.143 274.021L544.277 334.539L545.226 335.608L613.093 275.089L612.143 274.021ZM614.566 276.744L546.7 337.263L547.65 338.332L615.516 277.813L614.566 276.744ZM616.997 279.468L549.131 339.987L550.081 341.055L617.947 280.537L616.997 279.468ZM619.42 282.185L551.554 342.704L552.504 343.772L620.37 283.254L619.42 282.185ZM621.851 284.909L553.985 345.428L554.935 346.496L622.801 285.978L621.851 284.909Z" fill="white"/>
</g>
</g>
</svg>
