<svg width="425" height="6" viewBox="0 0 425 6" fill="none" xmlns="http://www.w3.org/2000/svg">
<path d="M0.333333 3C0.333333 4.47276 1.52724 5.66667 3 5.66667C4.47276 5.66667 5.66667 4.47276 5.66667 3C5.66667 1.52724 4.47276 0.333333 3 0.333333C1.52724 0.333333 0.333333 1.52724 0.333333 3ZM419.333 3.00004C419.333 4.4728 420.527 5.6667 422 5.6667C423.473 5.6667 424.667 4.4728 424.667 3.00004C424.667 1.52728 423.473 0.33337 422 0.33337C420.527 0.33337 419.333 1.52728 419.333 3.00004ZM3 3.5L422 3.50004L422 2.50004L3 2.5L3 3.5Z" fill="url(#paint0_linear_34_532)"/>
<defs>
<linearGradient id="paint0_linear_34_532" x1="399.041" y1="2.75761" x2="398.009" y2="25.199" gradientUnits="userSpaceOnUse">
<stop stop-color="#FF2DF7"/>
<stop offset="1" stop-color="#18ACFF"/>
</linearGradient>
</defs>
</svg>
