<svg width="592" height="6" viewBox="0 0 592 6" fill="none" xmlns="http://www.w3.org/2000/svg">
<path d="M0.333333 3C0.333333 4.47276 1.52724 5.66667 3 5.66667C4.47276 5.66667 5.66667 4.47276 5.66667 3C5.66667 1.52724 4.47276 0.333333 3 0.333333C1.52724 0.333333 0.333333 1.52724 0.333333 3ZM586.333 3.00005C586.333 4.47281 587.527 5.66672 589 5.66672C590.473 5.66672 591.667 4.47281 591.667 3.00005C591.667 1.52729 590.473 0.333385 589 0.333384C587.527 0.333384 586.333 1.52729 586.333 3.00005ZM3 3.5L589 3.50005L589 2.50005L3 2.5L3 3.5Z" fill="url(#paint0_linear_36_18)"/>
<defs>
<linearGradient id="paint0_linear_36_18" x1="556.89" y1="2.75762" x2="556.152" y2="25.2222" gradientUnits="userSpaceOnUse">
<stop stop-color="#FF2DF7"/>
<stop offset="1" stop-color="#18ACFF"/>
</linearGradient>
</defs>
</svg>
