<svg width="121" height="21" viewBox="0 0 121 21" fill="none" xmlns="http://www.w3.org/2000/svg">
<path d="M10.5 0L12.9193 7.17009L20.4861 7.25532L14.4145 11.7719L16.6717 18.9947L10.5 14.616L4.32825 18.9947L6.58545 11.7719L0.513906 7.25532L8.08068 7.17009L10.5 0Z" fill="#D8C72E"/>
<path d="M35.5 0L37.9193 7.17009L45.4861 7.25532L39.4145 11.7719L41.6717 18.9947L35.5 14.616L29.3283 18.9947L31.5855 11.7719L25.5139 7.25532L33.0807 7.17009L35.5 0Z" fill="#D8C72E"/>
<path d="M60.5 0L62.9193 7.17009L70.4861 7.25532L64.4145 11.7719L66.6717 18.9947L60.5 14.616L54.3283 18.9947L56.5855 11.7719L50.5139 7.25532L58.0807 7.17009L60.5 0Z" fill="#D8C72E"/>
<path d="M85.5 0L87.9193 7.17009L95.4861 7.25532L89.4145 11.7719L91.6717 18.9947L85.5 14.616L79.3283 18.9947L81.5855 11.7719L75.5139 7.25532L83.0807 7.17009L85.5 0Z" fill="#D8C72E"/>
<path d="M110.5 0L112.919 7.17009L120.486 7.25532L114.415 11.7719L116.672 18.9947L110.5 14.616L104.328 18.9947L106.585 11.7719L100.514 7.25532L108.081 7.17009L110.5 0Z" fill="#A0A0A0"/>
</svg>
