<svg width="14" height="19" viewBox="0 0 14 19" fill="none" xmlns="http://www.w3.org/2000/svg">
<path d="M7 14.4762C6.53587 14.4762 6.09075 14.2855 5.76256 13.9462C5.43437 13.6068 5.25 13.1466 5.25 12.6667C5.25 11.6624 6.02875 10.8571 7 10.8571C7.46413 10.8571 7.90925 11.0478 8.23744 11.3871C8.56563 11.7265 8.75 12.1868 8.75 12.6667C8.75 13.1466 8.56563 13.6068 8.23744 13.9462C7.90925 14.2855 7.46413 14.4762 7 14.4762ZM12.25 17.1905V8.14286H1.75V17.1905H12.25ZM12.25 6.33333C12.7141 6.33333 13.1592 6.52398 13.4874 6.86333C13.8156 7.20268 14 7.66294 14 8.14286V17.1905C14 17.6704 13.8156 18.1307 13.4874 18.47C13.1592 18.8094 12.7141 19 12.25 19H1.75C1.28587 19 0.840752 18.8094 0.512563 18.47C0.184374 18.1307 0 17.6704 0 17.1905V8.14286C0 7.13857 0.77875 6.33333 1.75 6.33333H2.625V4.52381C2.625 3.32402 3.08594 2.17337 3.90641 1.32499C4.72688 0.476614 5.83968 0 7 0C7.57453 0 8.14344 0.117012 8.67424 0.344355C9.20504 0.571697 9.68734 0.904919 10.0936 1.32499C10.4998 1.74507 10.8221 2.24377 11.042 2.79262C11.2618 3.34148 11.375 3.92973 11.375 4.52381V6.33333H12.25ZM7 1.80952C6.30381 1.80952 5.63613 2.09549 5.14384 2.60452C4.65156 3.11355 4.375 3.80394 4.375 4.52381V6.33333H9.625V4.52381C9.625 3.80394 9.34844 3.11355 8.85616 2.60452C8.36387 2.09549 7.69619 1.80952 7 1.80952Z" fill="#626067"/>
</svg>
