<svg width="87" height="33" viewBox="0 0 87 33" fill="none" xmlns="http://www.w3.org/2000/svg">
<path d="M13.5477 0H21.4512C24.1492 0 26.1171 0.619719 27.355 1.85916C28.5929 3.06761 29.2118 4.94225 29.2118 7.4831V8.78451C29.2118 10.4577 28.9262 11.8211 28.3548 12.8746C27.8153 13.9282 26.9741 14.6873 25.8315 15.1521V15.2451C28.4342 16.1127 29.7356 18.3746 29.7356 22.031V24.8197C29.7356 27.3296 29.0531 29.2507 27.6883 30.5831C26.3552 31.8845 24.3872 32.5352 21.7845 32.5352H13.5477V0ZM20.8323 13.2465C21.8797 13.2465 22.6574 12.9831 23.1652 12.4563C23.7048 11.9296 23.9746 11.0465 23.9746 9.80704V7.99437C23.9746 6.8169 23.7524 5.96479 23.3081 5.43803C22.8954 4.91127 22.2289 4.64789 21.3084 4.64789H18.785V13.2465H20.8323ZM21.7845 27.8873C22.705 27.8873 23.3874 27.6549 23.8318 27.1901C24.2762 26.6944 24.4983 25.8577 24.4983 24.6803V21.8451C24.4983 20.3577 24.2285 19.3352 23.6889 18.7775C23.1811 18.1887 22.3241 17.8944 21.1179 17.8944H18.785V27.8873H21.7845Z" fill="#E1E1E1"/>
<path d="M36.8438 0H43.9379L49.3655 32.5352H44.1283L43.1761 26.0746V26.1676H37.2247L36.2724 32.5352H31.4161L36.8438 0ZM42.5571 21.7521L40.2242 5.67042H40.129L37.8436 21.7521H42.5571Z" fill="#E1E1E1"/>
<path d="M51.9064 0H57.1437V13.7113L63.8092 0H69.0465L62.8094 11.9451L69.1417 32.5352H63.6664L59.2386 18.0338L57.1437 22.1704V32.5352H51.9064V0Z" fill="#E1E1E1"/>
<path d="M79.1917 33C76.6525 33 74.7163 32.3028 73.3832 30.9085C72.0501 29.4831 71.3835 27.4535 71.3835 24.8197V0H76.6208V25.1915C76.6208 26.307 76.8429 27.1127 77.2873 27.6084C77.7634 28.1042 78.43 28.3521 79.287 28.3521C80.144 28.3521 80.7947 28.1042 81.239 27.6084C81.7152 27.1127 81.9532 26.307 81.9532 25.1915V0H87V24.8197C87 27.4535 86.3334 29.4831 85.0003 30.9085C83.6672 32.3028 81.731 33 79.1917 33Z" fill="#E1E1E1"/>
<path d="M14.2834 32.5702H0V27.9223H9.04614V19.3237H1.85684V14.6758H9.04614V4.68284H0V0.0349487H14.2834V32.5702Z" fill="url(#paint0_linear_30_64)"/>
<defs>
<linearGradient id="paint0_linear_30_64" x1="7.58731" y1="41.9708" x2="7.58731" y2="-13.9437" gradientUnits="userSpaceOnUse">
<stop stop-color="#2DFFE6"/>
<stop offset="0.546875" stop-color="#FF2DF7"/>
<stop offset="1" stop-color="#0B8AFF"/>
</linearGradient>
</defs>
</svg>
